<?xml version="1.0" standalone="no"?>
<!DOCTYPE svg PUBLIC "-//W3C//DTD SVG 20010904//EN"
 "http://www.w3.org/TR/2001/REC-SVG-20010904/DTD/svg10.dtd">
<svg version="1.0" xmlns="http://www.w3.org/2000/svg"
 width="1000.000000pt" height="1000.000000pt" viewBox="0 0 1000.000000 1000.000000"
 preserveAspectRatio="xMidYMid meet">
<metadata>
Created by potrace 1.14, written by Peter Selinger 2001-2017
</metadata>
<g transform="translate(0.000000,1000.000000) scale(0.100000,-0.100000)"
fill="#000000" stroke="none">
<path d="M0 8418 l0 -918 625 0 625 0 0 625 0 625 625 0 625 0 0 293 0 292
-1250 0 -1250 0 0 -917z"/>
<path d="M0 5020 l0 -1810 5000 0 5000 0 0 1810 0 1810 -5000 0 -5000 0 0
-1810z m2493 1456 c374 -97 603 -370 633 -753 l7 -83 -255 0 -255 0 -5 68
c-19 246 -223 390 -499 353 -177 -24 -294 -119 -335 -273 -20 -76 -20 -1498 0
-1573 51 -191 221 -298 451 -282 134 10 219 48 293 132 76 86 86 128 90 378
l3 217 -250 0 -251 0 2 218 3 217 500 0 500 0 0 -445 c0 -428 -1 -448 -22
-530 -61 -231 -211 -420 -418 -523 -162 -81 -323 -112 -540 -104 -179 7 -300
36 -445 109 -92 45 -117 64 -200 148 -81 80 -103 110 -143 190 -26 52 -57 131
-70 175 -22 80 -22 84 -22 885 0 755 1 809 19 875 78 293 267 492 559 585 121
39 210 50 387 46 136 -3 182 -9 263 -30z m2851 0 c246 -64 448 -220 550 -423
41 -82 76 -219 83 -320 l6 -93 -251 0 -252 0 -4 23 c-3 12 -7 46 -10 76 -7 69
-53 167 -101 216 -83 83 -247 128 -389 106 -41 -6 -100 -20 -133 -32 -78 -30
-160 -112 -193 -194 l-25 -60 -3 -745 c-2 -487 1 -762 8 -793 48 -225 261
-345 526 -296 179 33 289 153 314 344 6 44 10 145 8 225 l-3 145 -253 3 -252
2 2 218 3 217 503 3 503 2 -3 -457 c-4 -432 -5 -462 -26 -533 -118 -413 -464
-636 -957 -617 -455 18 -755 243 -861 647 -16 58 -18 145 -22 800 -4 786 0
861 44 1000 40 125 96 215 198 315 72 71 110 100 181 136 182 94 305 120 545
115 138 -3 181 -8 264 -30z m2106 -596 l0 -590 390 0 390 0 0 590 0 590 255 0
255 0 0 -1470 0 -1470 -252 2 -253 3 -3 643 -2 642 -390 0 -390 0 0 -645 0
-645 -255 0 -255 0 0 1470 0 1470 255 0 255 0 0 -590z"/>
<path d="M7513 1853 c-10 -4 -13 -198 -13 -929 l0 -924 625 0 625 0 0 625 0
625 625 0 625 0 0 301 0 302 -35 -6 c-19 -3 -35 -3 -35 1 0 8 -100 7 -135 -2
-14 -4 -25 -3 -25 1 0 9 -98 8 -135 -1 -14 -4 -25 -3 -25 1 0 9 -98 8 -135 -1
-14 -4 -25 -3 -25 1 0 9 -98 8 -135 -1 -14 -4 -25 -3 -25 1 0 9 -98 8 -135 -1
-14 -4 -25 -3 -25 1 0 9 -98 8 -135 -1 -14 -4 -25 -3 -25 1 0 9 -98 8 -135 -1
-14 -4 -25 -3 -25 1 0 9 -98 8 -135 -1 -14 -4 -25 -3 -25 1 0 9 -98 8 -135 -1
-14 -4 -25 -3 -25 1 0 9 -98 8 -135 -1 -14 -4 -25 -3 -25 1 0 9 -98 8 -135 -1
-14 -4 -25 -3 -25 1 0 9 -98 8 -135 -1 -14 -4 -25 -3 -25 1 0 9 -98 8 -135 -1
-14 -4 -25 -3 -25 1 0 9 -98 8 -135 -1 -14 -4 -25 -3 -25 1 0 9 -114 8 -138
-2 -8 -3 -18 -2 -21 3 -3 5 -12 7 -18 5z"/>
</g>
</svg>
